<mxfile host="app.diagrams.net" modified="2023-12-09T04:39:45.226Z" agent="Mozilla/5.0 (Windows NT 10.0; Win64; x64) AppleWebKit/537.36 (KHTML, like Gecko) Chrome/119.0.0.0 Safari/537.36" etag="hld-g2d1TeWVBPQXY_o8" version="22.1.7" type="device">
  <diagram id="R2lEEEUBdFMjLlhIrx00" name="Page-1">
    <mxGraphModel dx="683" dy="357" grid="1" gridSize="10" guides="1" tooltips="1" connect="1" arrows="1" fold="1" page="1" pageScale="1" pageWidth="850" pageHeight="1100" math="0" shadow="0" extFonts="Permanent Marker^https://fonts.googleapis.com/css?family=Permanent+Marker">
      <root>
        <mxCell id="0" />
        <mxCell id="1" parent="0" />
        <mxCell id="-BvEbO8R_am1570-cPtQ-12" value="DeliveryPartner" style="swimlane;childLayout=stackLayout;horizontal=1;startSize=50;horizontalStack=0;rounded=1;fontSize=16;fontStyle=0;strokeWidth=2;resizeParent=0;resizeLast=1;shadow=0;dashed=0;align=center;arcSize=4;whiteSpace=wrap;html=1;" vertex="1" parent="1">
          <mxGeometry x="520" y="280" width="130" height="130" as="geometry" />
        </mxCell>
        <mxCell id="-BvEbO8R_am1570-cPtQ-13" value="&lt;font style=&quot;font-size: 13px;&quot;&gt;partner_id {PK}&lt;br&gt;first_name&lt;br&gt;last_name&lt;br&gt;phone&lt;/font&gt;" style="align=left;strokeColor=none;fillColor=none;spacingLeft=4;fontSize=12;verticalAlign=top;resizable=0;rotatable=0;part=1;html=1;" vertex="1" parent="-BvEbO8R_am1570-cPtQ-12">
          <mxGeometry y="50" width="130" height="80" as="geometry" />
        </mxCell>
        <mxCell id="-BvEbO8R_am1570-cPtQ-14" value="DeliveryZone" style="swimlane;childLayout=stackLayout;horizontal=1;startSize=50;horizontalStack=0;rounded=1;fontSize=16;fontStyle=0;strokeWidth=2;resizeParent=0;resizeLast=1;shadow=0;dashed=0;align=center;arcSize=4;whiteSpace=wrap;html=1;" vertex="1" parent="1">
          <mxGeometry x="290" y="290" width="130" height="100" as="geometry" />
        </mxCell>
        <mxCell id="-BvEbO8R_am1570-cPtQ-15" value="&lt;span style=&quot;font-size: 13px;&quot;&gt;zipcode {PK}&lt;br&gt;&lt;/span&gt;partner_id" style="align=left;strokeColor=none;fillColor=none;spacingLeft=4;fontSize=12;verticalAlign=top;resizable=0;rotatable=0;part=1;html=1;" vertex="1" parent="-BvEbO8R_am1570-cPtQ-14">
          <mxGeometry y="50" width="130" height="50" as="geometry" />
        </mxCell>
        <mxCell id="-BvEbO8R_am1570-cPtQ-16" value="Delivery" style="swimlane;childLayout=stackLayout;horizontal=1;startSize=50;horizontalStack=0;rounded=1;fontSize=16;fontStyle=0;strokeWidth=2;resizeParent=0;resizeLast=1;shadow=0;dashed=0;align=center;arcSize=4;whiteSpace=wrap;html=1;" vertex="1" parent="1">
          <mxGeometry x="340" y="430" width="160" height="150" as="geometry" />
        </mxCell>
        <mxCell id="-BvEbO8R_am1570-cPtQ-17" value="&lt;span style=&quot;font-size: 13px;&quot;&gt;order_id&amp;nbsp; {PK}&lt;br&gt;delivery_partner_id&lt;br&gt;expected_delivery_date&lt;br&gt;delivery_status&lt;br&gt;status_upgrade_trigger&lt;br&gt;&lt;/span&gt;" style="align=left;strokeColor=none;fillColor=none;spacingLeft=4;fontSize=12;verticalAlign=top;resizable=0;rotatable=0;part=1;html=1;" vertex="1" parent="-BvEbO8R_am1570-cPtQ-16">
          <mxGeometry y="50" width="160" height="100" as="geometry" />
        </mxCell>
        <mxCell id="-BvEbO8R_am1570-cPtQ-18" value="Customer" style="swimlane;childLayout=stackLayout;horizontal=1;startSize=50;horizontalStack=0;rounded=1;fontSize=16;fontStyle=0;strokeWidth=2;resizeParent=0;resizeLast=1;shadow=0;dashed=0;align=center;arcSize=4;whiteSpace=wrap;html=1;" vertex="1" parent="1">
          <mxGeometry x="560" y="430" width="110" height="240" as="geometry" />
        </mxCell>
        <mxCell id="-BvEbO8R_am1570-cPtQ-19" value="&lt;span style=&quot;font-size: 13px;&quot;&gt;cid {PK}&lt;br&gt;c_fname&lt;br&gt;c_lname&lt;br&gt;email&lt;br&gt;pwd&lt;br&gt;phone&lt;br&gt;street&lt;br&gt;apt&lt;br&gt;city&lt;br&gt;state&lt;br&gt;zip&lt;br&gt;&lt;/span&gt;" style="align=left;strokeColor=none;fillColor=none;spacingLeft=4;fontSize=12;verticalAlign=top;resizable=0;rotatable=0;part=1;html=1;" vertex="1" parent="-BvEbO8R_am1570-cPtQ-18">
          <mxGeometry y="50" width="110" height="190" as="geometry" />
        </mxCell>
        <mxCell id="-BvEbO8R_am1570-cPtQ-20" value="OrderInvoice" style="swimlane;childLayout=stackLayout;horizontal=1;startSize=50;horizontalStack=0;rounded=1;fontSize=16;fontStyle=0;strokeWidth=2;resizeParent=0;resizeLast=1;shadow=0;dashed=0;align=center;arcSize=4;whiteSpace=wrap;html=1;" vertex="1" parent="1">
          <mxGeometry x="150" y="430" width="130" height="140" as="geometry" />
        </mxCell>
        <mxCell id="-BvEbO8R_am1570-cPtQ-21" value="&lt;span style=&quot;font-size: 13px;&quot;&gt;order_id {PK}&lt;br&gt;customer_id&lt;br&gt;payment_type&lt;br&gt;coupon_code&lt;br&gt;order_date&lt;br&gt;&lt;/span&gt;" style="align=left;strokeColor=none;fillColor=none;spacingLeft=4;fontSize=12;verticalAlign=top;resizable=0;rotatable=0;part=1;html=1;" vertex="1" parent="-BvEbO8R_am1570-cPtQ-20">
          <mxGeometry y="50" width="130" height="90" as="geometry" />
        </mxCell>
        <mxCell id="-BvEbO8R_am1570-cPtQ-22" value="Coupon" style="swimlane;childLayout=stackLayout;horizontal=1;startSize=50;horizontalStack=0;rounded=1;fontSize=16;fontStyle=0;strokeWidth=2;resizeParent=0;resizeLast=1;shadow=0;dashed=0;align=center;arcSize=4;whiteSpace=wrap;html=1;" vertex="1" parent="1">
          <mxGeometry x="590" y="120" width="140" height="130" as="geometry" />
        </mxCell>
        <mxCell id="-BvEbO8R_am1570-cPtQ-23" value="&lt;span style=&quot;font-size: 13px;&quot;&gt;coupon_code {PK}&lt;br&gt;coupon_discount_amt&lt;br&gt;coupon_expiration&lt;br&gt;coupon_description&lt;br&gt;&lt;/span&gt;" style="align=left;strokeColor=none;fillColor=none;spacingLeft=4;fontSize=12;verticalAlign=top;resizable=0;rotatable=0;part=1;html=1;" vertex="1" parent="-BvEbO8R_am1570-cPtQ-22">
          <mxGeometry y="50" width="140" height="80" as="geometry" />
        </mxCell>
        <mxCell id="-BvEbO8R_am1570-cPtQ-24" value="Payment" style="swimlane;childLayout=stackLayout;horizontal=1;startSize=50;horizontalStack=0;rounded=1;fontSize=16;fontStyle=0;strokeWidth=2;resizeParent=0;resizeLast=1;shadow=0;dashed=0;align=center;arcSize=4;whiteSpace=wrap;html=1;" vertex="1" parent="1">
          <mxGeometry x="320" y="120" width="130" height="130" as="geometry" />
        </mxCell>
        <mxCell id="-BvEbO8R_am1570-cPtQ-25" value="&lt;span style=&quot;font-size: 13px;&quot;&gt;payment_type {PK}&lt;br&gt;img&lt;br&gt;payment_text&lt;br&gt;bg-color&lt;br&gt;&lt;/span&gt;" style="align=left;strokeColor=none;fillColor=none;spacingLeft=4;fontSize=12;verticalAlign=top;resizable=0;rotatable=0;part=1;html=1;" vertex="1" parent="-BvEbO8R_am1570-cPtQ-24">
          <mxGeometry y="50" width="130" height="80" as="geometry" />
        </mxCell>
        <mxCell id="-BvEbO8R_am1570-cPtQ-26" value="Category" style="swimlane;childLayout=stackLayout;horizontal=1;startSize=50;horizontalStack=0;rounded=1;fontSize=16;fontStyle=0;strokeWidth=2;resizeParent=0;resizeLast=1;shadow=0;dashed=0;align=center;arcSize=4;whiteSpace=wrap;html=1;" vertex="1" parent="1">
          <mxGeometry x="160" y="120" width="130" height="130" as="geometry" />
        </mxCell>
        <mxCell id="-BvEbO8R_am1570-cPtQ-27" value="category_name {PK}&lt;span style=&quot;font-size: 13px;&quot;&gt;&lt;br&gt;&lt;/span&gt;" style="align=left;strokeColor=none;fillColor=none;spacingLeft=4;fontSize=12;verticalAlign=top;resizable=0;rotatable=0;part=1;html=1;" vertex="1" parent="-BvEbO8R_am1570-cPtQ-26">
          <mxGeometry y="50" width="130" height="80" as="geometry" />
        </mxCell>
        <mxCell id="-BvEbO8R_am1570-cPtQ-28" value="OrderItem" style="swimlane;childLayout=stackLayout;horizontal=1;startSize=50;horizontalStack=0;rounded=1;fontSize=16;fontStyle=0;strokeWidth=2;resizeParent=0;resizeLast=1;shadow=0;dashed=0;align=center;arcSize=4;whiteSpace=wrap;html=1;" vertex="1" parent="1">
          <mxGeometry x="305" y="640" width="115" height="110" as="geometry" />
        </mxCell>
        <mxCell id="-BvEbO8R_am1570-cPtQ-29" value="&lt;span style=&quot;font-size: 13px;&quot;&gt;order_id {PK}&lt;br&gt;p_name&lt;br&gt;quantity&lt;br&gt;&lt;/span&gt;" style="align=left;strokeColor=none;fillColor=none;spacingLeft=4;fontSize=12;verticalAlign=top;resizable=0;rotatable=0;part=1;html=1;" vertex="1" parent="-BvEbO8R_am1570-cPtQ-28">
          <mxGeometry y="50" width="115" height="60" as="geometry" />
        </mxCell>
        <mxCell id="-BvEbO8R_am1570-cPtQ-30" value="Product" style="swimlane;childLayout=stackLayout;horizontal=1;startSize=50;horizontalStack=0;rounded=1;fontSize=16;fontStyle=0;strokeWidth=2;resizeParent=0;resizeLast=1;shadow=0;dashed=0;align=center;arcSize=4;whiteSpace=wrap;html=1;" vertex="1" parent="1">
          <mxGeometry x="470" y="690" width="115" height="180" as="geometry" />
        </mxCell>
        <mxCell id="-BvEbO8R_am1570-cPtQ-31" value="&lt;span style=&quot;font-size: 13px;&quot;&gt;pid {PK}&lt;br&gt;p_name&lt;br&gt;category&lt;br&gt;sell_price&lt;br&gt;p_description&lt;br&gt;qty_in_stock&lt;br&gt;product_img&lt;br&gt;&lt;/span&gt;" style="align=left;strokeColor=none;fillColor=none;spacingLeft=4;fontSize=12;verticalAlign=top;resizable=0;rotatable=0;part=1;html=1;" vertex="1" parent="-BvEbO8R_am1570-cPtQ-30">
          <mxGeometry y="50" width="115" height="130" as="geometry" />
        </mxCell>
        <mxCell id="-BvEbO8R_am1570-cPtQ-33" value="Vendor" style="swimlane;childLayout=stackLayout;horizontal=1;startSize=50;horizontalStack=0;rounded=1;fontSize=16;fontStyle=0;strokeWidth=2;resizeParent=0;resizeLast=1;shadow=0;dashed=0;align=center;arcSize=4;whiteSpace=wrap;html=1;" vertex="1" parent="1">
          <mxGeometry x="280" y="780" width="115" height="210" as="geometry" />
        </mxCell>
        <mxCell id="-BvEbO8R_am1570-cPtQ-34" value="&lt;span style=&quot;font-size: 13px;&quot;&gt;vendor_id {PK}&lt;br&gt;first_name&lt;br&gt;last_name&lt;br&gt;phone_number&lt;br&gt;street_number&lt;br&gt;street_name&lt;br&gt;city&lt;br&gt;state&lt;br&gt;zip&lt;br&gt;&lt;/span&gt;" style="align=left;strokeColor=none;fillColor=none;spacingLeft=4;fontSize=12;verticalAlign=top;resizable=0;rotatable=0;part=1;html=1;" vertex="1" parent="-BvEbO8R_am1570-cPtQ-33">
          <mxGeometry y="50" width="115" height="160" as="geometry" />
        </mxCell>
      </root>
    </mxGraphModel>
  </diagram>
</mxfile>
